<svg version="1.1" viewBox="0.0 0.0 377.9527559055118 377.9527559055118" fill="none" stroke="none" stroke-linecap="square" stroke-miterlimit="10" xmlns:xlink="http://www.w3.org/1999/xlink" xmlns="http://www.w3.org/2000/svg"><clipPath id="p.0"><path d="m0 0l377.95276 0l0 377.95276l-377.95276 0l0 -377.95276z" clip-rule="nonzero"/></clipPath><g clip-path="url(#p.0)"><path fill="#000000" fill-opacity="0.0" d="m0 0l377.95276 0l0 377.95276l-377.95276 0z" fill-rule="evenodd"/><path fill="#000000" d="m5.3543305 188.97638l0 0c0 -101.57691 82.21039 -183.92126 183.62206 -183.92126l0 0c48.6996 0 95.40457 19.377363 129.8404 53.86929c34.43582 34.49193 53.781647 81.273026 53.781647 130.05197l0 0c0 101.576904 -82.21039 183.92126 -183.62204 183.92126l0 0c-101.41166 0 -183.62206 -82.34436 -183.62206 -183.92126z" fill-rule="evenodd"/><path stroke="#ffffff" stroke-width="8.0" stroke-linejoin="round" stroke-linecap="butt" d="m5.3543305 188.97638l0 0c0 -101.57691 82.21039 -183.92126 183.62206 -183.92126l0 0c48.6996 0 95.40457 19.377363 129.8404 53.86929c34.43582 34.49193 53.781647 81.273026 53.781647 130.05197l0 0c0 101.576904 -82.21039 183.92126 -183.62204 183.92126l0 0c-101.41166 0 -183.62206 -82.34436 -183.62206 -183.92126z" fill-rule="evenodd"/><path fill="#000000" fill-opacity="0.0" d="m78.64567 157.35432l220.66144 0l0 47.244095l-220.66144 0z" fill-rule="evenodd"/><path fill="#ffffff" d="m102.30953 180.4337q1.921875 0.59375 3.0 2.03125q1.09375 1.421875 1.09375 3.5q0 2.9375 -2.296875 4.53125q-2.28125 1.578125 -6.671875 1.578125l-11.578125 0l0 -22.40625l10.9375 0q4.109375 0 6.296875 1.578125q2.1875 1.5625 2.1875 4.25q0 1.640625 -0.78125 2.921875q-0.78125 1.265625 -2.1875 2.015625zm-11.296875 -6.859375l0 5.28125l5.140625 0q1.921875 0 2.90625 -0.671875q1.0 -0.671875 1.0 -1.984375q0 -1.3125 -1.0 -1.96875q-0.984375 -0.65625 -2.90625 -0.65625l-5.140625 0zm6.046875 14.59375q2.046875 0 3.078125 -0.671875q1.046875 -0.671875 1.046875 -2.078125q0 -2.78125 -4.125 -2.78125l-6.046875 0l0 5.53125l6.046875 0zm29.792557 -4.640625q0 0.09375 -0.09375 1.34375l-13.03125 0q0.359375 1.609375 1.671875 2.53125q1.3125 0.921875 3.25 0.921875q1.34375 0 2.390625 -0.390625q1.046875 -0.40625 1.9375 -1.265625l2.65625 2.875q-2.4375 2.78125 -7.109375 2.78125q-2.90625 0 -5.15625 -1.125q-2.234375 -1.140625 -3.453125 -3.15625q-1.203125 -2.015625 -1.203125 -4.578125q0 -2.53125 1.1875 -4.5625q1.203125 -2.03125 3.296875 -3.15625q2.09375 -1.140625 4.6875 -1.140625q2.53125 0 4.578125 1.09375q2.046875 1.078125 3.21875 3.109375q1.171875 2.03125 1.171875 4.71875zm-8.9375 -5.15625q-1.6875 0 -2.84375 0.96875q-1.15625 0.953125 -1.40625 2.625l8.484375 0q-0.265625 -1.640625 -1.421875 -2.609375q-1.140625 -0.984375 -2.8125 -0.984375zm17.035805 -1.234375q0.890625 -1.25 2.40625 -1.890625q1.53125 -0.640625 3.5 -0.640625l0 4.609375q-0.828125 -0.0625 -1.109375 -0.0625q-2.140625 0 -3.359375 1.203125q-1.21875 1.1875 -1.21875 3.59375l0 8.125l-5.0 0l0 -17.21875l4.78125 0l0 2.28125zm14.807648 15.1875q-2.140625 0 -4.1875 -0.515625q-2.046875 -0.53125 -3.265625 -1.328125l1.65625 -3.59375q1.15625 0.734375 2.78125 1.203125q1.640625 0.46875 3.203125 0.46875q3.171875 0 3.171875 -1.578125q0 -0.734375 -0.859375 -1.046875q-0.859375 -0.328125 -2.65625 -0.546875q-2.109375 -0.328125 -3.484375 -0.734375q-1.375 -0.421875 -2.390625 -1.46875q-1.0 -1.0625 -1.0 -3.015625q0 -1.625 0.9375 -2.890625q0.9375 -1.265625 2.75 -1.96875q1.8125 -0.703125 4.28125 -0.703125q1.8125 0 3.625 0.40625q1.8125 0.390625 2.984375 1.09375l-1.65625 3.546875q-2.265625 -1.28125 -4.953125 -1.28125q-1.609375 0 -2.40625 0.453125q-0.796875 0.453125 -0.796875 1.15625q0 0.796875 0.859375 1.125q0.859375 0.3125 2.75 0.59375q2.109375 0.359375 3.453125 0.765625q1.34375 0.390625 2.328125 1.453125q1.0 1.046875 1.0 2.9375q0 1.609375 -0.96875 2.859375q-0.953125 1.234375 -2.796875 1.921875q-1.828125 0.6875 -4.359375 0.6875zm28.07016 -8.796875q0 0.09375 -0.09375 1.34375l-13.03125 0q0.359375 1.609375 1.671875 2.53125q1.3125 0.921875 3.25 0.921875q1.34375 0 2.390625 -0.390625q1.046875 -0.40625 1.9375 -1.265625l2.65625 2.875q-2.4375 2.78125 -7.109375 2.78125q-2.90625 0 -5.15625 -1.125q-2.234375 -1.140625 -3.453125 -3.15625q-1.203125 -2.015625 -1.203125 -4.578125q0 -2.53125 1.1875 -4.5625q1.203125 -2.03125 3.296875 -3.15625q2.09375 -1.140625 4.6875 -1.140625q2.53125 0 4.578125 1.09375q2.046875 1.078125 3.21875 3.109375q1.171875 2.03125 1.171875 4.71875zm-8.9375 -5.15625q-1.6875 0 -2.84375 0.96875q-1.15625 0.953125 -1.40625 2.625l8.484375 0q-0.265625 -1.640625 -1.421875 -2.609375q-1.140625 -0.984375 -2.8125 -0.984375zm17.035797 -1.234375q0.890625 -1.25 2.40625 -1.890625q1.53125 -0.640625 3.5 -0.640625l0 4.609375q-0.828125 -0.0625 -1.109375 -0.0625q-2.140625 0 -3.359375 1.203125q-1.21875 1.1875 -1.21875 3.59375l0 8.125l-5.0 0l0 -17.21875l4.78125 0l0 2.28125zm16.417023 8.1875l-2.40625 2.359375l0 4.390625l-5.0 0l0 -23.75l5.0 0l0 13.453125l7.296875 -6.921875l5.953125 0l-7.171875 7.296875l7.8125 9.921875l-6.046875 0l-5.4375 -6.75zm18.71379 -11.421875l-7.171875 0l0 -4.234375l19.515625 0l0 4.234375l-7.15625 0l0 18.171875l-5.1875 0l0 -18.171875zm31.651047 9.625q0 0.09375 -0.09375 1.34375l-13.03125 0q0.359375 1.609375 1.671875 2.53125q1.3125 0.921875 3.25 0.921875q1.34375 0 2.390625 -0.390625q1.046875 -0.40625 1.9375 -1.265625l2.65625 2.875q-2.4375 2.78125 -7.109375 2.78125q-2.90625 0 -5.15625 -1.125q-2.234375 -1.140625 -3.453125 -3.15625q-1.203125 -2.015625 -1.203125 -4.578125q0 -2.53125 1.1875 -4.5625q1.203125 -2.03125 3.296875 -3.15625q2.09375 -1.140625 4.6875 -1.140625q2.53125 0 4.578125 1.09375q2.046875 1.078125 3.21875 3.109375q1.171875 2.03125 1.171875 4.71875zm-8.9375 -5.15625q-1.6875 0 -2.84375 0.96875q-1.15625 0.953125 -1.40625 2.625l8.484375 0q-0.265625 -1.640625 -1.421875 -2.609375q-1.140625 -0.984375 -2.8125 -0.984375zm20.582657 13.953125q-2.75 0 -4.953125 -1.125q-2.1875 -1.140625 -3.4218597 -3.15625q-1.21875 -2.015625 -1.21875 -4.578125q0 -2.5625 1.21875 -4.578125q1.2343597 -2.015625 3.4218597 -3.140625q2.203125 -1.140625 4.953125 -1.140625q2.71875 0 4.75 1.140625q2.03125 1.125 2.96875 3.234375l-3.875 2.078125q-1.34375 -2.359375 -3.875 -2.359375q-1.953125 0 -3.234375 1.28125q-1.28125 1.28125 -1.28125 3.484375q0 2.203125 1.28125 3.484375q1.28125 1.28125 3.234375 1.28125q2.5625 0 3.875 -2.359375l3.875 2.109375q-0.9375 2.046875 -2.96875 3.203125q-2.03125 1.140625 -4.75 1.140625zm21.052673 -17.71875q3.203125 0 5.171875 1.921875q1.96875 1.921875 1.96875 5.6875l0 9.859375l-5.0 0l0 -9.09375q0 -2.046875 -0.890625 -3.046875q-0.890625 -1.015625 -2.59375 -1.015625q-1.890625 0 -3.015625 1.171875q-1.109375 1.171875 -1.109375 3.46875l0 8.515625l-5.0 0l0 -23.75l5.0 0l0 8.328125q0.984375 -1.0 2.390625 -1.515625q1.421875 -0.53125 3.078125 -0.53125z" fill-rule="nonzero"/><path fill="#000000" fill-opacity="0.0" d="m78.64528 192.0797l220.66142 0l0 25.795288l-220.66142 0z" fill-rule="evenodd"/><path fill="#ffffff" d="m137.9143 205.53595l1.265625 0.3125q-0.390625 1.5625 -1.421875 2.375q-1.03125 0.8125 -2.53125 0.8125q-1.53125 0 -2.5 -0.625q-0.96875 -0.625 -1.484375 -1.8125q-0.5 -1.1875 -0.5 -2.5625q0 -1.484375 0.5625 -2.59375q0.578125 -1.109375 1.625 -1.6875q1.0625 -0.578125 2.328125 -0.578125q1.421875 0 2.390625 0.734375q0.984375 0.71875 1.375 2.046875l-1.25 0.296875q-0.328125 -1.046875 -0.96875 -1.515625q-0.625 -0.484375 -1.578125 -0.484375q-1.09375 0 -1.84375 0.53125q-0.734375 0.53125 -1.03125 1.421875q-0.296875 0.875 -0.296875 1.828125q0 1.21875 0.34375 2.125q0.359375 0.90625 1.109375 1.359375q0.75 0.4375 1.625 0.4375q1.0625 0 1.796875 -0.609375q0.734375 -0.609375 0.984375 -1.8125zm2.6564026 3.34375l0 -6.90625l1.0625 0l0 1.046875q0.40625 -0.734375 0.734375 -0.96875q0.34375 -0.234375 0.765625 -0.234375q0.59375 0 1.203125 0.375l-0.40625 1.078125q-0.4375 -0.25 -0.859375 -0.25q-0.390625 0 -0.703125 0.234375q-0.296875 0.234375 -0.421875 0.640625q-0.203125 0.625 -0.203125 1.359375l0 3.625l-1.171875 0zm9.18837 -2.21875l1.203125 0.140625q-0.28125 1.0625 -1.0625 1.65625q-0.765625 0.578125 -1.96875 0.578125q-1.515625 0 -2.40625 -0.9375q-0.890625 -0.9375 -0.890625 -2.609375q0 -1.75 0.890625 -2.703125q0.90625 -0.96875 2.34375 -0.96875q1.390625 0 2.265625 0.9375q0.875 0.9375 0.875 2.65625q0 0.109375 0 0.3125l-5.15625 0q0.0625 1.140625 0.640625 1.75q0.578125 0.59375 1.4375 0.59375q0.65625 0 1.109375 -0.328125q0.453125 -0.34375 0.71875 -1.078125zm-3.84375 -1.90625l3.859375 0q-0.078125 -0.859375 -0.4375 -1.296875q-0.5625 -0.6875 -1.453125 -0.6875q-0.8125 0 -1.359375 0.546875q-0.546875 0.53125 -0.609375 1.4375zm7.8031006 4.125l-2.125 -6.90625l1.21875 0l1.09375 3.984375l0.421875 1.484375q0.015625 -0.109375 0.359375 -1.421875l1.09375 -4.046875l1.203125 0l1.03125 4.0l0.34375 1.328125l0.40625 -1.34375l1.171875 -3.984375l1.140625 0l-2.15625 6.90625l-1.21875 0l-1.09375 -4.140625l-0.265625 -1.171875l-1.40625 5.3125l-1.21875 0zm11.60939 -3.453125q0 -1.921875 1.078125 -2.84375q0.890625 -0.765625 2.171875 -0.765625q1.421875 0 2.328125 0.9375q0.90625 0.921875 0.90625 2.578125q0 1.328125 -0.40625 2.09375q-0.390625 0.765625 -1.15625 1.1875q-0.765625 0.421875 -1.671875 0.421875q-1.453125 0 -2.359375 -0.921875q-0.890625 -0.9375 -0.890625 -2.6875zm1.203125 0q0 1.328125 0.578125 1.984375q0.59375 0.65625 1.46875 0.65625q0.875 0 1.453125 -0.65625q0.578125 -0.671875 0.578125 -2.03125q0 -1.28125 -0.59375 -1.9375q-0.578125 -0.65625 -1.4375 -0.65625q-0.875 0 -1.46875 0.65625q-0.578125 0.65625 -0.578125 1.984375zm6.9281006 3.453125l0 -6.0l-1.03125 0l0 -0.90625l1.03125 0l0 -0.734375q0 -0.703125 0.125 -1.046875q0.171875 -0.453125 0.59375 -0.734375q0.421875 -0.28125 1.203125 -0.28125q0.484375 0 1.09375 0.109375l-0.1875 1.03125q-0.359375 -0.0625 -0.6875 -0.0625q-0.53125 0 -0.75 0.234375q-0.21875 0.21875 -0.21875 0.84375l0 0.640625l1.34375 0l0 0.90625l-1.34375 0l0 6.0l-1.171875 0zm6.6559753 -2.0625l1.15625 -0.1875q0.109375 0.703125 0.546875 1.078125q0.453125 0.359375 1.25 0.359375q0.8125 0 1.203125 -0.328125q0.390625 -0.328125 0.390625 -0.765625q0 -0.390625 -0.359375 -0.625q-0.234375 -0.15625 -1.1875 -0.390625q-1.296875 -0.328125 -1.796875 -0.5625q-0.484375 -0.25 -0.75 -0.65625q-0.25 -0.421875 -0.25 -0.9375q0 -0.453125 0.203125 -0.84375q0.21875 -0.40625 0.578125 -0.671875q0.28125 -0.1875 0.75 -0.328125q0.46875 -0.140625 1.015625 -0.140625q0.8125 0 1.421875 0.234375q0.609375 0.234375 0.90625 0.640625q0.296875 0.390625 0.40625 1.0625l-1.140625 0.15625q-0.078125 -0.53125 -0.453125 -0.828125q-0.375 -0.3125 -1.0625 -0.3125q-0.8125 0 -1.15625 0.265625q-0.34375 0.265625 -0.34375 0.625q0 0.234375 0.140625 0.421875q0.15625 0.1875 0.453125 0.3125q0.171875 0.0625 1.03125 0.296875q1.25 0.328125 1.734375 0.546875q0.5 0.203125 0.78125 0.609375q0.28125 0.40625 0.28125 1.0q0 0.59375 -0.34375 1.109375q-0.34375 0.515625 -1.0 0.796875q-0.640625 0.28125 -1.453125 0.28125q-1.34375 0 -2.046875 -0.5625q-0.703125 -0.5625 -0.90625 -1.65625zm11.8671875 -0.15625l1.203125 0.140625q-0.28125 1.0625 -1.0625 1.65625q-0.765625 0.578125 -1.96875 0.578125q-1.515625 0 -2.40625 -0.9375q-0.890625 -0.9375 -0.890625 -2.609375q0 -1.75 0.890625 -2.703125q0.90625 -0.96875 2.34375 -0.96875q1.390625 0 2.265625 0.9375q0.875 0.9375 0.875 2.65625q0 0.109375 0 0.3125l-5.15625 0q0.0625 1.140625 0.640625 1.75q0.578125 0.59375 1.4375 0.59375q0.65625 0 1.109375 -0.328125q0.453125 -0.34375 0.71875 -1.078125zm-3.84375 -1.90625l3.859375 0q-0.078125 -0.859375 -0.4375 -1.296875q-0.5625 -0.6875 -1.453125 -0.6875q-0.8125 0 -1.359375 0.546875q-0.546875 0.53125 -0.609375 1.4375zm6.5218506 4.125l0 -6.90625l1.0625 0l0 0.984375q0.75 -1.140625 2.1875 -1.140625q0.625 0 1.15625 0.21875q0.53125 0.21875 0.78125 0.59375q0.265625 0.359375 0.375 0.859375q0.0625 0.328125 0.0625 1.140625l0 4.25l-1.171875 0l0 -4.203125q0 -0.71875 -0.140625 -1.0625q-0.140625 -0.359375 -0.484375 -0.5625q-0.34375 -0.21875 -0.8125 -0.21875q-0.75 0 -1.296875 0.46875q-0.546875 0.46875 -0.546875 1.796875l0 3.78125l-1.171875 0zm7.4281006 -8.1875l0 -1.359375l1.171875 0l0 1.359375l-1.171875 0zm0 8.1875l0 -6.90625l1.171875 0l0 6.90625l-1.171875 0zm2.507965 -3.453125q0 -1.921875 1.078125 -2.84375q0.890625 -0.765625 2.1718903 -0.765625q1.421875 0 2.328125 0.9375q0.90625 0.921875 0.90625 2.578125q0 1.328125 -0.40625 2.09375q-0.390625 0.765625 -1.15625 1.1875q-0.765625 0.421875 -1.671875 0.421875q-1.4531403 0 -2.3593903 -0.921875q-0.890625 -0.9375 -0.890625 -2.6875zm1.203125 0q0 1.328125 0.578125 1.984375q0.59376526 0.65625 1.4687653 0.65625q0.875 0 1.453125 -0.65625q0.578125 -0.671875 0.578125 -2.03125q0 -1.28125 -0.59375 -1.9375q-0.578125 -0.65625 -1.4375 -0.65625q-0.875 0 -1.4687653 0.65625q-0.578125 0.65625 -0.578125 1.984375zm6.631241 3.453125l0 -6.90625l1.0625 0l0 1.046875q0.40625 -0.734375 0.734375 -0.96875q0.34375 -0.234375 0.765625 -0.234375q0.59375 0 1.203125 0.375l-0.40625 1.078125q-0.4375 -0.25 -0.859375 -0.25q-0.390625 0 -0.703125 0.234375q-0.296875 0.234375 -0.421875 0.640625q-0.203125 0.625 -0.203125 1.359375l0 3.625l-1.171875 0zm12.641357 0l0 -0.875q-0.65625 1.03125 -1.9375 1.03125q-0.8125 0 -1.515625 -0.453125q-0.6875 -0.453125 -1.078125 -1.265625q-0.375 -0.828125 -0.375 -1.890625q0 -1.03125 0.34375 -1.875q0.34375 -0.84375 1.03125 -1.28125q0.703125 -0.453125 1.546875 -0.453125q0.625 0 1.109375 0.265625q0.5 0.25 0.796875 0.671875l0 -3.421875l1.171875 0l0 9.546875l-1.09375 0zm-3.703125 -3.453125q0 1.328125 0.5625 1.984375q0.5625 0.65625 1.328125 0.65625q0.765625 0 1.296875 -0.625q0.53125 -0.625 0.53125 -1.90625q0 -1.421875 -0.546875 -2.078125q-0.546875 -0.671875 -1.34375 -0.671875q-0.78125 0 -1.3125 0.640625q-0.515625 0.625 -0.515625 2.0zm11.365601 1.234375l1.203125 0.140625q-0.28125 1.0625 -1.0625 1.65625q-0.765625 0.578125 -1.96875 0.578125q-1.515625 0 -2.40625 -0.9375q-0.890625 -0.9375 -0.890625 -2.609375q0 -1.75 0.890625 -2.703125q0.90625 -0.96875 2.34375 -0.96875q1.390625 0 2.265625 0.9375q0.875 0.9375 0.875 2.65625q0 0.109375 0 0.3125l-5.15625 0q0.0625 1.140625 0.640625 1.75q0.578125 0.59375 1.4375 0.59375q0.65625 0 1.109375 -0.328125q0.453125 -0.34375 0.71875 -1.078125zm-3.84375 -1.90625l3.859375 0q-0.078125 -0.859375 -0.4375 -1.296875q-0.5625 -0.6875 -1.453125 -0.6875q-0.8125 0 -1.359375 0.546875q-0.546875 0.53125 -0.609375 1.4375zm8.443726 4.125l-2.625 -6.90625l1.234375 0l1.484375 4.140625q0.234375 0.65625 0.4375 1.390625q0.15625 -0.546875 0.4375 -1.3125l1.53125 -4.21875l1.21875 0l-2.625 6.90625l-1.09375 0zm4.2734375 -2.0625l1.15625 -0.1875q0.109375 0.703125 0.546875 1.078125q0.453125 0.359375 1.25 0.359375q0.8125 0 1.203125 -0.328125q0.390625 -0.328125 0.390625 -0.765625q0 -0.390625 -0.359375 -0.625q-0.234375 -0.15625 -1.1875 -0.390625q-1.296875 -0.328125 -1.796875 -0.5625q-0.484375 -0.25 -0.75 -0.65625q-0.25 -0.421875 -0.25 -0.9375q0 -0.453125 0.203125 -0.84375q0.21875 -0.40625 0.578125 -0.671875q0.28125 -0.1875 0.75 -0.328125q0.46875 -0.140625 1.015625 -0.140625q0.8125 0 1.421875 0.234375q0.609375 0.234375 0.90625 0.640625q0.296875 0.390625 0.40625 1.0625l-1.140625 0.15625q-0.078125 -0.53125 -0.453125 -0.828125q-0.375 -0.3125 -1.0625 -0.3125q-0.8125 0 -1.15625 0.265625q-0.34375 0.265625 -0.34375 0.625q0 0.234375 0.140625 0.421875q0.15625 0.1875 0.453125 0.3125q0.171875 0.0625 1.03125 0.296875q1.25 0.328125 1.734375 0.546875q0.5 0.203125 0.78125 0.609375q0.28125 0.40625 0.28125 1.0q0 0.59375 -0.34375 1.109375q-0.34375 0.515625 -1.0 0.796875q-0.640625 0.28125 -1.453125 0.28125q-1.34375 0 -2.046875 -0.5625q-0.703125 -0.5625 -0.90625 -1.65625z" fill-rule="nonzero"/></g></svg>
